<svg xmlns="http://www.w3.org/2000/svg" width="23" height="34.001" viewBox="0 0 23 34.001">
  <g id="Soustraction_34" data-name="Soustraction 34" fill="#fff">
    <path d="M 0.6664971709251404 33.50046920776367 L 0.5000002980232239 33.50040435791016 L 0.5000002980232239 3.000608444213867 C 0.5000002980232239 1.621768474578857 1.621360301971436 0.5000084638595581 2.999700307846069 0.5000084638595581 L 19.99979972839355 0.5000084638595581 C 21.37864112854004 0.5000084638595581 22.50040054321289 1.621768474578857 22.50040054321289 3.000608444213867 L 22.50040054321289 33.4997673034668 L 22.33344650268555 33.49995422363281 L 13.37781047821045 23.31376838684082 C 12.9032506942749 22.77398872375488 12.21889019012451 22.46440887451172 11.50020027160645 22.46440887451172 C 10.78151035308838 22.46440887451172 10.09714984893799 22.77398872375488 9.622590065002441 23.31376838684082 L 0.6664971709251404 33.50046920776367 Z" stroke="none"/>
    <path d="M 22.00040054321289 32.3639030456543 L 22.00040054321289 3.000608444213867 C 22.00040054321289 1.897478461265564 21.10293006896973 1.000008463859558 19.99979972839355 1.000008463859558 L 2.999700307846069 1.000008463859558 C 1.89706027507782 1.000008463859558 1.000000238418579 1.897478461265564 1.000000238418579 3.000608444213867 L 1.000000238418579 32.36389541625977 L 9.247079849243164 22.98363876342773 C 9.816540718078613 22.33589935302734 10.637770652771 21.96440887451172 11.50020027160645 21.96440887451172 C 12.36262989044189 21.96440887451172 13.18385982513428 22.33589935302734 13.75331020355225 22.98361778259277 L 22.00040054321289 32.3639030456543 M 0.8931002616882324 34.00055694580078 L 2.716064386731887e-07 34.00020980834961 L 2.716064386731887e-07 3.000608444213867 C 2.716064386731887e-07 1.346068501472473 1.345660328865051 8.472899935441092e-06 2.999700307846069 8.472899935441092e-06 L 19.99979972839355 8.472899935441092e-06 C 21.65434074401855 8.472899935441092e-06 23.00040054321289 1.346068501472473 23.00040054321289 3.000608444213867 L 23.00040054321289 33.99921035766602 L 22.10694122314453 34.00020980834961 C 22.0982608795166 33.98995971679688 22.08949089050293 33.97971725463867 22.08060073852539 33.96960830688477 L 13.00230026245117 23.64390754699707 C 12.62265014648438 23.21207809448242 12.07516002655029 22.96440887451172 11.50020027160645 22.96440887451172 C 10.9252405166626 22.96440887451172 10.37775039672852 23.21207809448242 9.998100280761719 23.64390754699707 L 0.9198002815246582 33.96960830688477 C 0.9108603000640869 33.97975921630859 0.9021002650260925 33.98993682861328 0.893400251865387 34.00020980834961 L 0.8931002616882324 34.00055694580078 Z" stroke="none" fill="#000"/>
  </g>
</svg>
