<svg xmlns="http://www.w3.org/2000/svg" xmlns:xlink="http://www.w3.org/1999/xlink" width="104.008" height="103.097" viewBox="0 0 104.008 103.097">
  <defs>
    <linearGradient id="linear-gradient" x1="0.129" y1="0.128" x2="0.84" y2="0.904" gradientUnits="objectBoundingBox">
      <stop offset="0" stop-color="#4d84ef"/>
      <stop offset="1" stop-color="#ef6eb3"/>
    </linearGradient>
    <clipPath id="clip-path">
      <rect x="50" width="53.008" height="103.008" fill="none"/>
    </clipPath>
    <clipPath id="clip-path-2">
      <rect y="37" width="77.008" height="65.008" fill="none"/>
    </clipPath>
  </defs>
  <g id="Groupe_246" data-name="Groupe 246" transform="translate(-210.498 -107.754)">
    <rect id="Rectangle_270" data-name="Rectangle 270" width="102.008" height="102.008" rx="18" transform="translate(210.498 107.754)" fill="url(#linear-gradient)"/>
    <g id="Groupe_défilant_28" data-name="Groupe défilant 28" transform="translate(211.498 107.842)" clip-path="url(#clip-path)" style="isolation: isolate">
      <g id="Rectangle_268" data-name="Rectangle 268" fill="none" stroke="#000" stroke-width="8">
        <rect width="102.008" height="102.008" rx="18" stroke="none"/>
        <rect x="4" y="4" width="94.008" height="94.008" rx="14" fill="none"/>
      </g>
    </g>
    <g id="Groupe_défilant_29" data-name="Groupe défilant 29" transform="translate(210.498 107.842)" clip-path="url(#clip-path-2)" style="isolation: isolate">
      <g id="Tracé_132" data-name="Tracé 132" fill="none">
        <path d="M18,0H84.008a18,18,0,0,1,18,18V84.008a18,18,0,0,1-18,18H18a18,18,0,0,1-18-18V18A18,18,0,0,1,18,0Z" stroke="none"/>
        <path d="M 18 8.000007629394531 C 12.48597717285156 8.000007629394531 8 12.48598480224609 8 18.00000762939453 L 8 84.00846099853516 C 8 89.52248382568359 12.48597717285156 94.00846099853516 18 94.00846099853516 L 84.00846099853516 94.00846099853516 C 89.52248382568359 94.00846099853516 94.00846099853516 89.52248382568359 94.00846099853516 84.00846099853516 L 94.00846099853516 18.00000762939453 C 94.00846099853516 12.48598480224609 89.52248382568359 8.000007629394531 84.00846099853516 8.000007629394531 L 18 8.000007629394531 M 18 7.62939453125e-06 L 84.00846099853516 7.62939453125e-06 C 93.9495849609375 7.62939453125e-06 102.0084609985352 8.058883666992188 102.0084609985352 18.00000762939453 L 102.0084609985352 84.00846099853516 C 102.0084609985352 93.9495849609375 93.9495849609375 102.0084609985352 84.00846099853516 102.0084609985352 L 18 102.0084609985352 C 8.058876037597656 102.0084609985352 0 93.9495849609375 0 84.00846099853516 L 0 18.00000762939453 C 0 8.058883666992188 8.058876037597656 7.62939453125e-06 18 7.62939453125e-06 Z" stroke="none" fill="#000"/>
      </g>
    </g>
    <path id="instagram" d="M38.031,28.523a9.511,9.511,0,0,0-9.508-9.508,9.511,9.511,0,0,0-9.508,9.508,9.511,9.511,0,0,0,9.508,9.508,9.511,9.511,0,0,0,9.508-9.508Zm5.125,0A14.581,14.581,0,0,1,28.523,43.156,14.581,14.581,0,0,1,13.891,28.523,14.581,14.581,0,0,1,28.523,13.891,14.581,14.581,0,0,1,43.156,28.523ZM47.167,13.3a3.416,3.416,0,1,1-5.83-2.413,3.416,3.416,0,0,1,5.83,2.413ZM28.523,5.125q-.26,0-2.841-.019t-3.919,0q-1.337.019-3.584.111a29.289,29.289,0,0,0-3.825.371,14.76,14.76,0,0,0-2.654.689A9.713,9.713,0,0,0,6.277,11.7a14.9,14.9,0,0,0-.688,2.656,29.289,29.289,0,0,0-.371,3.825q-.092,2.247-.111,3.584t0,3.919q.019,2.581.019,2.841t-.019,2.841q-.019,2.581,0,3.919t.111,3.584a29.289,29.289,0,0,0,.371,3.825,14.815,14.815,0,0,0,.688,2.653A9.713,9.713,0,0,0,11.7,50.77a14.9,14.9,0,0,0,2.656.688,29.29,29.29,0,0,0,3.825.371q2.247.092,3.584.111t3.919,0q2.581-.019,2.841-.019t2.841.019q2.581.019,3.919,0t3.584-.111a29.288,29.288,0,0,0,3.825-.371,14.906,14.906,0,0,0,2.656-.688,9.713,9.713,0,0,0,5.423-5.423,14.9,14.9,0,0,0,.688-2.656,29.289,29.289,0,0,0,.371-3.825q.092-2.247.111-3.584t0-3.919q-.019-2.581-.019-2.841t.019-2.841q.019-2.581,0-3.919t-.111-3.584a29.287,29.287,0,0,0-.371-3.825A14.619,14.619,0,0,0,50.77,11.7a9.713,9.713,0,0,0-5.423-5.423,14.9,14.9,0,0,0-2.656-.688,29.289,29.289,0,0,0-3.825-.371q-2.247-.092-3.584-.111t-3.919,0q-2.581.019-2.841.019Zm28.523,23.4q0,8.5-.185,11.774-.371,7.725-4.6,11.959T40.3,56.861q-3.269.185-11.774.185T16.75,56.861q-7.725-.371-11.959-4.6T.185,40.3Q0,37.028,0,28.523T.185,16.75Q.556,9.024,4.79,4.79T16.75.185Q20.019,0,28.523,0T40.3.185q7.725.371,11.959,4.6t4.6,11.959Q57.047,20.019,57.047,28.523Z" transform="translate(234.477 130.477)" fill="#fff"/>
  </g>
</svg>
