<svg xmlns="http://www.w3.org/2000/svg" xmlns:xlink="http://www.w3.org/1999/xlink" width="48" height="48" viewBox="0 0 48 48"><defs><clipPath id="b"><rect width="48" height="48"/></clipPath></defs><g id="a" clip-path="url(#b)"><rect width="48" height="48" fill="#fff"/><path d="M23.016,17.262a5.756,5.756,0,0,0-5.754-5.754,5.756,5.756,0,0,0-5.754,5.754,5.756,5.756,0,0,0,5.754,5.754,5.756,5.756,0,0,0,5.754-5.754Zm3.1,0a8.824,8.824,0,0,1-8.855,8.855,8.824,8.824,0,0,1-8.855-8.855,8.824,8.824,0,0,1,8.855-8.855,8.824,8.824,0,0,1,8.855,8.855Zm2.427-9.215a2.068,2.068,0,1,1-3.528-1.461,2.068,2.068,0,0,1,3.528,1.461ZM17.262,3.1,15.542,3.09q-1.562-.012-2.372,0T11,3.157a17.725,17.725,0,0,0-2.315.224A8.932,8.932,0,0,0,7.08,3.8,5.878,5.878,0,0,0,3.8,7.08a9.02,9.02,0,0,0-.416,1.607A17.725,17.725,0,0,0,3.158,11q-.056,1.36-.067,2.169t0,2.372q.012,1.562.012,1.719t-.012,1.719q-.012,1.562,0,2.372t.067,2.169a17.725,17.725,0,0,0,.224,2.315A8.966,8.966,0,0,0,3.8,27.443,5.878,5.878,0,0,0,7.08,30.725a9.02,9.02,0,0,0,1.607.416A17.726,17.726,0,0,0,11,31.366q1.36.056,2.169.067t2.372,0l1.719-.012,1.719.012q1.562.012,2.372,0t2.169-.067a17.724,17.724,0,0,0,2.315-.224,9.021,9.021,0,0,0,1.607-.416,5.878,5.878,0,0,0,3.282-3.282,9.019,9.019,0,0,0,.416-1.607,17.725,17.725,0,0,0,.224-2.315q.056-1.36.067-2.169t0-2.372q-.012-1.562-.012-1.719t.012-1.719q.012-1.562,0-2.372T31.367,11a17.723,17.723,0,0,0-.224-2.315,8.847,8.847,0,0,0-.418-1.605A5.878,5.878,0,0,0,27.443,3.8a9.02,9.02,0,0,0-1.607-.416,17.725,17.725,0,0,0-2.315-.224q-1.36-.056-2.169-.067t-2.372,0L17.261,3.1Zm17.262,14.16q0,5.147-.112,7.125a10.543,10.543,0,0,1-2.787,7.237,10.543,10.543,0,0,1-7.237,2.787q-1.978.112-7.125.112t-7.125-.112A10.543,10.543,0,0,1,2.9,31.624,10.543,10.543,0,0,1,.112,24.387Q0,22.409,0,17.262t.112-7.125A10.543,10.543,0,0,1,2.9,2.9,10.543,10.543,0,0,1,10.136.112Q12.115,0,17.262,0t7.125.112A10.543,10.543,0,0,1,31.624,2.9a10.543,10.543,0,0,1,2.787,7.237Q34.523,12.115,34.523,17.262Z" transform="translate(7.477 7.238)"/></g></svg>