<svg xmlns="http://www.w3.org/2000/svg" width="27.083" height="33.632" viewBox="0 0 27.083 33.632">
  <g id="Union_13" data-name="Union 13" transform="translate(0)" fill="#fff">
    <path d="M 17.04150009155273 33.13209915161133 L 10.04130077362061 33.13209915161133 C 8.111611366271973 33.13209915161133 6.541700839996338 31.56218910217285 6.541700839996338 29.63249969482422 L 6.541700839996338 19.63169860839844 L 6.541700839996338 19.13169860839844 L 6.041700839996338 19.13169860839844 L 2.003400802612305 19.13169860839844 C 1.425270915031433 19.13169860839844 0.9246109127998352 18.8236198425293 0.6641408801078796 18.30756950378418 C 0.4038608968257904 17.79190826416016 0.4533309042453766 17.2065601348877 0.7964609265327454 16.74175834655762 L 12.33449077606201 1.108719229698181 C 12.62015056610107 0.7217292189598083 13.06005096435547 0.499779224395752 13.54140090942383 0.499779224395752 C 14.02275085449219 0.499779224395752 14.46265125274658 0.7217292189598083 14.74832057952881 1.108739256858826 L 26.28631019592285 16.74171829223633 C 26.62947082519531 17.2065601348877 26.67894172668457 17.79190826416016 26.41866111755371 18.30756950378418 C 26.1581916809082 18.8236198425293 25.65753173828125 19.13169860839844 25.07940101623535 19.13169860839844 L 21.04110145568848 19.13169860839844 L 20.54110145568848 19.13169860839844 L 20.54110145568848 19.63169860839844 L 20.54110145568848 29.63249969482422 C 20.54110145568848 31.56218910217285 18.97119140625 33.13209915161133 17.04150009155273 33.13209915161133 Z" stroke="none"/>
    <path d="M 17.04150009155273 32.63209915161133 C 18.69549179077148 32.63209915161133 20.04110145568848 31.28648948669434 20.04110145568848 29.63249969482422 L 20.04110145568848 18.63169860839844 L 25.07940101623535 18.63169860839844 C 25.4648609161377 18.63169860839844 25.79865074157715 18.42630958557129 25.9722900390625 18.08227920532227 C 26.14575004577637 17.73861885070801 26.11277008056641 17.34850883483887 25.88401031494141 17.03862953186035 L 14.34605121612549 1.405679225921631 C 14.15564060211182 1.147729158401489 13.86235046386719 0.999779224395752 13.54140090942383 0.999779224395752 C 13.22045135498047 0.999779224395752 12.92716121673584 1.147729158401489 12.73679065704346 1.40562915802002 L 1.198720932006836 17.03872871398926 C 0.9700309038162231 17.34850883483887 0.9370509386062622 17.73861885070801 1.110510945320129 18.08227920532227 C 1.284150958061218 18.42630958557129 1.617940902709961 18.63169860839844 2.003400802612305 18.63169860839844 L 7.041700839996338 18.63169860839844 L 7.041700839996338 29.63249969482422 C 7.041700839996338 31.28648948669434 8.387310981750488 32.63209915161133 10.04130077362061 32.63209915161133 L 17.04150009155273 32.63209915161133 M 17.04150009155273 33.63209915161133 L 10.04130077362061 33.63209915161133 C 7.832700729370117 33.63209915161133 6.041700839996338 31.84109878540039 6.041700839996338 29.63249969482422 L 6.041700839996338 19.63169860839844 L 2.003400802612305 19.63169860839844 C 0.3627009093761444 19.63169860839844 -0.5804991126060486 17.76509857177734 0.3942009210586548 16.44479942321777 L 11.93220138549805 0.8117992281913757 C 12.73139953613281 -0.2709007859230042 14.35140228271484 -0.2709007859230042 15.15060043334961 0.8117992281913757 L 26.68860054016113 16.44479942321777 C 27.66330146789551 17.76509857177734 26.72010040283203 19.63169860839844 25.07940101623535 19.63169860839844 L 21.04110145568848 19.63169860839844 L 21.04110145568848 29.63249969482422 C 21.04110145568848 31.84109878540039 19.25100135803223 33.63209915161133 17.04150009155273 33.63209915161133 Z" stroke="none" fill="#000"/>
  </g>
</svg>
