<svg xmlns="http://www.w3.org/2000/svg" xmlns:xlink="http://www.w3.org/1999/xlink" width="102.008" height="102.009" viewBox="0 0 102.008 102.009">
  <defs>
    <linearGradient id="linear-gradient" x1="0.129" y1="0.128" x2="0.84" y2="0.904" gradientUnits="objectBoundingBox">
      <stop offset="0" stop-color="#4d84ef"/>
      <stop offset="1" stop-color="#ef6eb3"/>
    </linearGradient>
    <clipPath id="clip-path">
      <rect x="41" width="61.009" height="80.009" fill="none"/>
    </clipPath>
  </defs>
  <g id="Groupe_249" data-name="Groupe 249" transform="translate(-62.493 -552.076)">
    <rect id="Rectangle_1168" data-name="Rectangle 1168" width="102.008" height="102.008" rx="18" transform="translate(62.493 552.076)" fill="url(#linear-gradient)"/>
    <g id="Groupe_défilant_30" data-name="Groupe défilant 30" transform="translate(61.992 552.076)" clip-path="url(#clip-path)" style="isolation: isolate">
      <g id="Rectangle_275" data-name="Rectangle 275" fill="none" stroke="#000" stroke-width="8">
        <rect width="102.008" height="102.008" rx="18" stroke="none"/>
        <rect x="4" y="4" width="94.008" height="94.008" rx="14" fill="none"/>
      </g>
    </g>
    <path id="bxl-snapchat" d="M31.9,4.5a14.871,14.871,0,0,1,13.79,8.884c1.232,2.772.937,7.485.694,11.271l-.006.137c-.033.422-.052.8-.069,1.185a1.793,1.793,0,0,0,.931.208,6.565,6.565,0,0,0,2.4-.7,2.342,2.342,0,0,1,1.078-.243,3.19,3.19,0,0,1,1.182.208A2.215,2.215,0,0,1,53.607,27.4c.037,1.043-.906,1.953-2.818,2.714-.2.067-.49.175-.8.278-1.049.316-2.652.835-3.1,1.883a2.412,2.412,0,0,0,.283,2.014l.035.037c.139.316,3.551,8.081,11.144,9.337a1.16,1.16,0,0,1,.975,1.182,1.465,1.465,0,0,1-.1.522c-.557,1.32-2.957,2.3-7.315,2.951a6.345,6.345,0,0,0-.382,1.328,9.164,9.164,0,0,1-.31,1.284,1.217,1.217,0,0,1-1.29.941h-.069a7.085,7.085,0,0,1-1.251-.17,13.877,13.877,0,0,0-2.961-.312,11.118,11.118,0,0,0-2.117.173A10.444,10.444,0,0,0,39.52,53.62c-1.985,1.392-4.249,3-7.66,3-.139,0-.278-.035-.422-.035h-.343c-3.416,0-5.64-1.571-7.624-3A10.332,10.332,0,0,0,19.5,51.529a15.924,15.924,0,0,0-2.153-.173,14.6,14.6,0,0,0-2.957.347,6.486,6.486,0,0,1-1.257.17,1.3,1.3,0,0,1-1.359-.975c-.139-.445-.2-.906-.31-1.319a6.548,6.548,0,0,0-.386-1.324c-4.461-.517-6.862-1.5-7.418-2.851a1.369,1.369,0,0,1-.127-.522A1.151,1.151,0,0,1,4.51,43.7c7.591-1.255,11-9.019,11.144-9.345l.037-.067a2.327,2.327,0,0,0,.278-2.02c-.451-1.008-2.057-1.531-3.094-1.879a5.085,5.085,0,0,1-.808-.278C9.493,29.1,9.144,27.946,9.285,27.148A2.748,2.748,0,0,1,12,25.305a2.327,2.327,0,0,1,.891.173,6.424,6.424,0,0,0,2.568.7,2.145,2.145,0,0,0,1.078-.247L16.417,24.6c-.231-3.778-.526-8.485.713-11.244A14.621,14.621,0,0,1,30.789,4.529l.968-.029H31.9Z" transform="translate(81.567 572.522)" fill="#fff"/>
  </g>
</svg>
